<svg xmlns="http://www.w3.org/2000/svg" viewBox="0 0 2259.79 460.8"><defs><style>.cls-1,.cls-3{fill:#fff;}.cls-2{fill:none;stroke:#fff;stroke-width:5px;}.cls-3{font-size:122px;font-family:Lato-Black, Lato;}</style></defs><title>LogoUAndes_1</title><g id="Capa_2" data-name="Capa 2"><g id="Capa_1-2" data-name="Capa 1"><path class="cls-1" d="M199.2,460.8a35.71,35.71,0,0,1-1.3-8.95,105.8,105.8,0,0,1-.5-14.35c.24-3.57.12-7.17.8-10.72a16.14,16.14,0,0,1,6-10.07,64.45,64.45,0,0,0,6.46-5.34,29.3,29.3,0,0,0,4.88-6.77A133,133,0,0,0,223.72,386a14.9,14.9,0,0,0,.81-6.35c-.45-5.8-.68-11.62-.94-17.43-.23-5.18-.56-10.35-.83-15.52-.21-4.15-.39-8.29-.6-12.43-.27-5.1-.56-10.19-.82-15.28-.22-4.39-.4-8.77-.62-13.15-.28-5.58-.6-11.15-.86-16.72-.22-4.62-.24-9.26-.62-13.87-.42-5.09-.17-10.2-.72-15.29-.22-2.05-.1-4.15-.2-6.22-.45-9-1.21-18-2.2-26.92-.74-6.65-1.34-13.32-2.12-20-1-8.31-2.11-16.6-3.13-24.9-.77-6.25-1.58-12.5-2.8-18.68-1.6-8.07-3.71-16-5.7-24-2-8.22-3.47-16.54-4.69-24.91-1.45-10-3-20-4.54-30-.88-5.83-1.74-11.66-2.63-17.66-.8.35-.84,1-1,1.53-1.59,5.94-2.66,12-3.71,18-2,11.23-3.56,22.52-5.18,33.8-1.3,9.07-2.4,18.17-3.59,27.26q-2.06,15.77-4.1,31.52c-.87,6.8-1.66,13.61-2.5,20.41-1.09,8.85-2.21,17.7-3.28,26.56-1,8.55-2,17.1-3,25.64-1.19,9.8-2.44,19.6-3.66,29.41-.84,6.8-1.6,13.61-2.5,20.4-1,8-2,16-3.35,23.91a11.91,11.91,0,0,1-1.19,3.63c-.22.41-.44,1-1,.85s-.62-.66-.75-1.14a22.28,22.28,0,0,1-.32-6.91c.22-4.37.6-8.74.91-13.11.42-6,.86-11.92,1.25-17.88.26-4,.42-8,.68-11.95.4-6.28.85-12.56,1.24-18.84.26-4.14.42-8.28.68-12.42.4-6.53.85-13,1.25-19.56.26-4.3.44-8.61.66-12.91.28-5.33.58-10.67.86-16,.21-4.14.3-8.29.6-12.43.52-7.15.63-14.33,1.18-21.48.3-3.89.46-7.81.74-11.7.47-6.76,1-13.51,1.66-20.24.5-5,1-10,1.52-15,1.62-14.5,3.7-28.93,6.59-43.24,2.75-13.65,8-26.38,13.69-39a16,16,0,0,1,1.85-3.07c.9-1.21,1.61-1.28,2.86-.5a12,12,0,0,1,3.1,3.29,92.06,92.06,0,0,1,9.91,17.74,125.36,125.36,0,0,1,7.76,24.36c3,13.58,6.78,26.93,10.72,40.25A393.56,393.56,0,0,1,231.88,165c2.42,14.55,4.79,29.11,7.23,43.65,2.12,12.58,4.37,25.14,6.46,37.72,1.23,7.39,2.67,14.75,3.07,22.26.25,4.86.67,9.72.54,14.59-.12,4.16.41,8.29.34,12.44-.16,8.47-.25,16.94-.51,25.4-.19,6.37-.52,12.75-.95,19.11-1,14.08-2.19,28.12-4.83,42A23.76,23.76,0,0,1,236.34,395a77.51,77.51,0,0,0-16,22.3,27.28,27.28,0,0,0-3,13.17c.1,1.93-.4,3.81-.41,5.72a26.86,26.86,0,0,0,0,3.11,6.87,6.87,0,0,0,4,5.8,26.11,26.11,0,0,0,8,2.31c5.95.82,11.78-.08,17.57-1.24,12.21-2.46,23.69-7,35-12.15a352.78,352.78,0,0,0,39.91-21.35c13.37-8.25,22.18-20,25.36-35.64a38.93,38.93,0,0,0,.76-7.86q0-158.86,0-317.74c0-4,.6-3.06-3-4.23-16-5.19-32.27-9.65-48.63-13.67-16-3.92-32.05-7.26-48.28-9.88-8.1-1.31-16.24-2.38-24.42-3.16-8-.76-16.05-1.17-24.1-1.51-6.48-.28-12.93,0-19.36.35-9.94.48-19.84,1.63-29.71,3.06-10.26,1.5-20.47,3.26-30.62,5.37q-32,6.64-63.23,16.45Q51.08,45.86,46,47.53c-1.88.62-1.87.66-1.89,2.7,0,.56,0,1.12,0,1.68q0,156.95,0,313.91a132.49,132.49,0,0,0,3.35,31.56c2.59,10.56,6.82,20.29,14.34,28.32A39.7,39.7,0,0,0,71,432.9c.68.39,1.34.81,2.3,1.4a5.24,5.24,0,0,1-2.58-.63c-16.45-6.63-32.1-14.68-46-25.86-7.34-5.9-13.8-12.6-18.54-20.82A43.18,43.18,0,0,1,.91,372.94,4.32,4.32,0,0,0,0,370.56V20.64a7.23,7.23,0,0,0,2.62-.13C11.73,19,20.84,17.35,30,15.92q17-2.67,34.05-5Q81.9,8.44,99.81,6.35c9.09-1.08,18.2-2.06,27.32-2.87,10.55-.93,21.12-1.77,31.69-2.39C165,.74,171.09.26,177.24.35c.46,0,1,.1,1.32-.35h31.68c.43.52,1,.36,1.56.35,6.16-.1,12.29.4,18.42.75,10.57.6,21.13,1.48,31.69,2.38,7.86.67,15.7,1.48,23.53,2.38,12.35,1.42,24.68,2.92,37,4.57Q341.63,13,360.76,16c9.38,1.43,18.72,3.08,28.07,4.65,1.76.29,1.76.32,1.8,2.13,0,.72,0,1.44,0,2.16q0,170.1,0,340.22c0,12.42-4.29,23.06-12.18,32.43C373,404,366.33,409,359.14,413.43c-9.2,5.65-18.53,11.05-28.23,15.76a314.34,314.34,0,0,1-55.55,20.75,332.88,332.88,0,0,1-40.75,8.31c-5.37.75-10.76,1.3-16.17,1.7-2.86.21-5.72.45-8.59.46-.4,0-.81,0-1,.39Z"/><path class="cls-1" d="M1536,103.2c-4,.62-8,1.27-12,1.87q-14.31,2.12-28.62,4.2c-4.57.67-9.14,1.38-13.73,2-1.1.14-1.35.62-1.21,1.55,1,6.72,2.78,13.11,8,18a20.65,20.65,0,0,0,12,5.52,49.74,49.74,0,0,0,25.75-3.66c2.38-1,2.4-1,3.31,1.4q1.8,4.71,3.53,9.42c.57,1.54.56,1.57-1,2.32a51.1,51.1,0,0,1-13.4,4.33,77.42,77.42,0,0,1-16.42,1.4c-8.41-.21-16.48-1.84-23.64-6.64A38.67,38.67,0,0,1,1463,123.68a70,70,0,0,1-2.7-24.63,56.75,56.75,0,0,1,4.64-21.14c5.43-11.92,14.36-19.36,27.47-21.33a44,44,0,0,1,21.28,1.59c8.71,3,14.77,9,18.47,17.39a36.9,36.9,0,0,1,3.43,12.89c0,.45,0,1,.42,1.31Zm-19.28-11.45c-.27-6.14-1.37-10.72-3.27-14.33a14.65,14.65,0,0,0-6.61-6.68c-6.46-3.14-17.72-2.84-23.26,7.08-3.74,6.71-4.53,14-4.63,21.48,0,1,.42,1.24,1.3,1.1l7.32-1.1c8.74-1.31,17.48-2.61,26.21-4C1516.84,94.87,1516.83,94.8,1516.72,91.75Z"/><path class="cls-1" d="M993.45,394.66A5.14,5.14,0,0,1,991,395q-16.68,0-33.35,0c-2.12,0-2.23.51-3.07-2.3q-7-23.52-14.14-47c-.61-2-.61-2-2.75-2q-29.88,0-59.75,0c-2.21,0-2.15-.58-3.06,2.35q-7.26,23.32-14.51,46.64c-.73,2.35-.72,2.36-3.25,2.36H826.76c-.46-1.13.11-1.91.38-2.71q8.91-27,17.87-53.89,6.87-20.69,13.72-41.39,6.6-19.89,13.19-39.79Q879,235.93,886,214.66c2-5.91,3.88-11.84,5.82-17.75.69-2.09.7-2.1,2.75-2.11h31c2.07,0,2.08,0,2.76,2.09q9,27.18,17.94,54.37,7.47,22.62,15,45.26,7.77,23.55,15.55,47.09,7.39,22.39,14.77,44.82C992.19,390.46,992.79,392.51,993.45,394.66Zm-59-73.08c-.28-1.05-.47-1.82-.69-2.58l-4.86-16.53q-6.9-23.55-13.78-47.08c-2.54-8.73-5.17-17.44-6.12-26.54a.49.49,0,0,0-.62-.48c-2.32,10.34-4.56,20.7-7.72,30.85-5.85,18.73-11.5,37.52-17.2,56.3a32.29,32.29,0,0,0-1.63,6.06Z"/><path class="cls-1" d="M1241.84,251.86V196.11c0-2.24,0-2.26,2.21-2.26,5.84,0,11.67,0,17.51,0h11c2.18,0,2.18,0,2.2,2.28V384a6.14,6.14,0,0,0,0,1c.24,1.56-.4,2.38-1.85,3.12a79,79,0,0,1-20.57,7,134.21,134.21,0,0,1-35.49,2.27c-11-.73-21.55-3.54-31-9.59a57.33,57.33,0,0,1-21.34-24.65,80.84,80.84,0,0,1-6.9-26.74,131.74,131.74,0,0,1-.24-20.83c.85-13.3,4-26,10.93-37.55,6-9.87,13.84-17.72,24.29-22.77a61.67,61.67,0,0,1,22.83-5.72,102.82,102.82,0,0,1,16.93.57A80.06,80.06,0,0,1,1241.84,251.86Zm0,69.93V272.13c0-2.32,0-2.36-2.23-2.81a56,56,0,0,0-16.14-1.12c-12,1.06-20.94,6.65-26.62,17.33-4.48,8.42-6.14,17.59-6.79,27a102.25,102.25,0,0,0-.31,14.55c.33,4.53.43,9.08,1.12,13.58,1.16,7.53,3,14.85,7.08,21.44a28.8,28.8,0,0,0,13.18,11.75c6.91,3,14.13,3,21.42,2.26a25.22,25.22,0,0,0,6.52-1.45c2.76-1,2.77-1,2.77-3.89Z"/><path class="cls-1" d="M1013.84,326.52V261c0-2.64,0-2.63,2.4-3.67a113.73,113.73,0,0,1,29.28-7.78,174.16,174.16,0,0,1,30.1-1.45c10,.3,19.89,1.82,29,6.26,12.56,6.09,20.36,15.87,22.47,29.88a50.65,50.65,0,0,1,.49,7.87v99.81c0,3.41.27,3-2.9,3q-13.56,0-27.11,0a9.59,9.59,0,0,0-1.2,0c-1.33.16-1.69-.53-1.6-1.7,0-.56,0-1.12,0-1.68q0-49.9,0-99.81a26,26,0,0,0-2.6-11.81,18.87,18.87,0,0,0-12.18-9.74c-5.6-1.63-11.32-1.58-17.08-1.11a57.38,57.38,0,0,0-13.79,2.82c-2.34.78-2.34.79-2.34,3.35q0,58.17,0,116.36c0,3.75.46,3.29-3.33,3.3q-13.2,0-26.39,0c-.56,0-1.12,0-1.68,0-1.11.09-1.64-.34-1.55-1.5,0-.64,0-1.28,0-1.92Z"/><path class="cls-1" d="M521.19,323c.1-10.56,1-21,4-31.23a67.08,67.08,0,0,1,11.62-23.46c7.88-10,18-16.46,30.46-18.93a68.16,68.16,0,0,1,33.15,1.27c11.65,3.47,20.61,10.63,27.45,20.56,6.18,9,9.63,19,11.57,29.67a123.56,123.56,0,0,1,1.75,27.42c-.53,12.67-2.51,25.09-8,36.69-8.37,17.66-21.81,28.91-41.44,31.81-11.2,1.66-22.3,1-33-3.12A51.07,51.07,0,0,1,535,374.92c-6.76-9.52-10.33-20.27-12.24-31.66A129.49,129.49,0,0,1,521.19,323Zm32.64.28a134.33,134.33,0,0,0,1.09,18.11A65.4,65.4,0,0,0,559.29,359c1.77,4.15,4,8.08,7.46,11,5.85,4.89,12.6,6.2,20,4.55a19.94,19.94,0,0,0,9.9-5.49,32.33,32.33,0,0,0,7.26-12c3.32-8.94,4.26-18.3,4.61-27.71a151,151,0,0,0-.19-16.75,133.31,133.31,0,0,0-1.56-14.24c-1.12-6.23-2.72-12.32-6-17.83-5.51-9.34-13.69-13.12-24.26-11.25-6.27,1.11-10.81,4.84-14.17,10.14a47.63,47.63,0,0,0-6,15.79A131.14,131.14,0,0,0,553.83,323.29Z"/><path class="cls-1" d="M1371.21,397.52a75.11,75.11,0,0,1-23.33-3,57.44,57.44,0,0,1-22-12.2c-9.73-8.68-15.71-19.56-18.92-32.1a104.2,104.2,0,0,1-2.89-17.67,130.08,130.08,0,0,1-.25-17c.64-12.7,2.91-25,8.77-36.48,5.74-11.2,14-19.93,25.46-25.45a52.27,52.27,0,0,1,16-4.82c10.29-1.33,20.54-1.18,30.61,1.74,13.54,3.93,23.45,12.28,30,24.71,4.45,8.46,6.63,17.56,7.74,27a131.83,131.83,0,0,1,.79,17.43c0,2.18,0,2.23-2.08,2.55-7.25,1.1-14.5,2.16-21.75,3.23q-15.72,2.32-31.45,4.63c-8.12,1.18-16.24,2.32-24.37,3.48-2.44.35-4.88.77-7.33,1.06-1,.11-1.28.54-1.16,1.39,1.4,10.52,4,20.59,11.6,28.56,4.94,5.21,11.24,8,18.24,9.33a43.75,43.75,0,0,0,8.79.83c12-.15,23.69-1.79,34.64-7.06.43-.21.87-.4,1.29-.64.64-.36,1-.2,1.27.49.49,1.35,1,2.68,1.53,4,1.8,4.78,3.54,9.58,5.41,14.33.5,1.25.21,1.8-.93,2.37a84.33,84.33,0,0,1-24.58,7.7A125.31,125.31,0,0,1,1371.21,397.52Zm-38.33-85.09c0,1.28,0,2.55,0,3.83,0,1.59.06,1.59,1.64,1.46.39,0,.79-.07,1.18-.13l33.07-5.06c7.4-1.13,14.8-2.28,22.21-3.36,1.11-.17,1.51-.65,1.42-1.73-.14-1.58-.24-3.17-.33-4.76a55.64,55.64,0,0,0-3.86-18.64c-2.64-6.28-6.73-11.24-13.22-13.78a29.6,29.6,0,0,0-19.7-.69,24.1,24.1,0,0,0-11.17,7.08c-4.47,4.91-7.07,10.77-8.73,17.1A82.22,82.22,0,0,0,1332.88,312.43Z"/><path class="cls-1" d="M670.18,365.79a39.89,39.89,0,0,0,8.74,5,44.35,44.35,0,0,0,24.44,2.59,19.36,19.36,0,0,0,15.78-16.78c1.09-11.71-3.51-17.5-11.13-21.91a67.64,67.64,0,0,0-9.56-4.39c-7.27-2.82-14.15-6.3-20.05-11.5a36.52,36.52,0,0,1-12.73-24.19c-1.13-10.41,1-20,7.1-28.58a40.35,40.35,0,0,1,26.17-16.8c16.61-3,32.58-.95,47.47,7.47.21.12.42.23.62.36,2,1.27,1.65,1.26.91,3-2.42,5.64-4.77,11.3-7.11,16.88-.83.23-1.18-.29-1.6-.59a35.44,35.44,0,0,0-23.37-7c-9.6.45-16.24,6.08-18.11,14.3-1.68,7.36.65,13.54,6.19,18.52,4.45,4,9.75,6.61,15.25,8.84A69.35,69.35,0,0,1,738,321.93c8.43,7.05,13.71,15.81,14.77,27,1.25,13.06-2.66,24.18-11.84,33.55-7.92,8.1-17.62,12.46-28.69,14.1a70.23,70.23,0,0,1-13.35.8c-9.69-.4-19.23-1.65-28.24-5.54a47.89,47.89,0,0,1-8-4.27c-.69-.48-1-.89-.66-1.74C664.66,379.23,667.35,372.67,670.18,365.79Z"/><path class="cls-1" d="M1522.78,277.42a47.78,47.78,0,0,0-7.55-4.68,33.66,33.66,0,0,0-21-2.85,17.41,17.41,0,0,0-14,12.37c-2.35,7.22-.45,13.56,4.76,18.91,4.32,4.43,9.73,7.17,15.39,9.48A75.31,75.31,0,0,1,1519,321c6.12,4.85,11.15,10.61,13.68,18.1,4.67,13.85,3.21,27-5.67,38.82-8.14,10.84-19.3,16.7-32.61,18.63a72.73,72.73,0,0,1-13.35.81c-9.36-.39-18.59-1.58-27.36-5.17a61.39,61.39,0,0,1-8.73-4.47c-.7-.42-1.35-.77-.9-1.85,2.74-6.56,5.42-13.13,8.08-19.61.79-.29,1.16.22,1.6.52,7.09,5,15.07,7.1,23.66,7.24,4,.07,8-.07,11.76-1.65a19.58,19.58,0,0,0,12.35-19.51,26.12,26.12,0,0,0-1-6.13,17.35,17.35,0,0,0-6-9,49.37,49.37,0,0,0-13.47-7.19c-7.36-2.79-14.35-6.27-20.32-11.5-8.49-7.45-13-16.77-13.13-28.18a41.51,41.51,0,0,1,3.19-17.52,40.87,40.87,0,0,1,18.43-19.78,48.12,48.12,0,0,1,22.8-5.49,78.48,78.48,0,0,1,21.8,2.5,61.65,61.65,0,0,1,15.79,6.78,1.52,1.52,0,0,1,.71,2.31C1527.79,265.44,1525.37,271.26,1522.78,277.42Z"/><path class="cls-1" d="M490.64,294v97.88c0,3.52.3,3.09-3.06,3.09q-13.44,0-26.87,0c-.56,0-1.12,0-1.68,0-.8,0-1.19-.32-1.18-1.13,0-.56,0-1.12,0-1.68V195.9c0-3.2-.19-2.85,2.82-2.86h27.11c.56,0,1.12,0,1.68,0,.8,0,1.19.32,1.18,1.13s0,1.44,0,2.16Z"/><path class="cls-1" d="M534.8,83.24v58.3c0,2.73,0,2.72-2.57,3.77a77.34,77.34,0,0,1-19.91,5,113.57,113.57,0,0,1-20.77.79c-7.3-.44-14.43-1.71-20.83-5.57-8-4.79-12.17-11.87-12.91-21.15-.42-5.19-.26-10.38-.27-15.56q-.06-41.62,0-83.25v-1.2c0-2.34,0-2.35,2.36-2.36,6,0,12,0,18,0,2.19,0,2.21,0,2.21,2.24v53.5q0,22.08,0,44.15c0,4.3,1.2,8.19,4.5,11.21a14.75,14.75,0,0,0,9.4,3.7c5.27.32,10.55.23,15.65-1.49l1.81-.6a1.43,1.43,0,0,0,1.12-1.6c-.06-.64,0-1.28,0-1.92q0-53.14,0-106.28c0-3.29-.37-2.89,3-2.9q8.52,0,17,0c2.2,0,2.22,0,2.22,2.23Z"/><path class="cls-1" d="M1280,58.42a5.82,5.82,0,0,0,.21-2.59q0-15.46,0-30.95c0-.48,0-1,0-1.43.06-1.7.07-1.75,1.77-1.76,4.39,0,8.79,0,13.19,0,1.52,0,3,0,4.56,0,1,0,1.51.32,1.44,1.38,0,.56,0,1.12,0,1.68q0,58.89,0,117.79a3.65,3.65,0,0,1-2.51,3.94,63.54,63.54,0,0,1-18.47,4.74,86.55,86.55,0,0,1-16.49.38c-18-1.4-30.8-11.89-35.48-28.94a65,65,0,0,1-2-13.69c-.49-8.86.32-17.53,3.41-25.87,4.61-12.43,12.82-21.26,25.95-24.73,7.53-2,15.17-1.67,22.77-.1A2.84,2.84,0,0,0,1280,58.42Zm.22,45V72.45c0-2.32,0-2.36-2.29-2.76a34.41,34.41,0,0,0-9.77-.49c-7.52.85-13.19,4.43-16.7,11.26-3,5.82-3.91,12.1-4.35,18.49a78.57,78.57,0,0,0,.31,13.63,41,41,0,0,0,4.24,15.35,18.24,18.24,0,0,0,8.6,8.35c5.73,2.59,11.63,2.4,17.57.92,2.36-.59,2.39-.77,2.39-3.34Z"/><path class="cls-1" d="M1119,83.57c0,19.68,0,39.35.06,59a3.63,3.63,0,0,1-2.55,3.91,60.37,60.37,0,0,1-17.28,4.6,85.35,85.35,0,0,1-17.21.49c-10.11-.8-19.16-4.08-26.3-11.63-5.36-5.66-8.47-12.48-10.2-20a70.11,70.11,0,0,1-1.35-19.53c.48-9,2.43-17.69,7.31-25.49,6.22-9.92,15-15.91,26.7-17.44a54,54,0,0,1,18.07.76c1.92.4,1.94.42,2-1.62q0-15.72,0-31.43c0-.56,0-1.12,0-1.68.06-1.79.06-1.83,1.92-1.83q8.28,0,16.55,0c2.31,0,2.33,0,2.33,2.39v59.5Zm-20.8,20V92.32q0-10.08,0-20.15c0-1.93,0-2-1.89-2.37a32.59,32.59,0,0,0-10.47-.58c-6.43.79-11.67,3.59-15.24,9.19-3,4.61-4.24,9.76-5,15.09s-.57,10.68-.44,16a45.79,45.79,0,0,0,2.79,14.75c2.23,6,5.9,10.64,12.1,12.76a26.41,26.41,0,0,0,15.79.14c2.41-.66,2.39-.78,2.39-3.35Z"/><path class="cls-1" d="M1420.72,58.2V24.35c0-.64,0-1.28,0-1.92a.8.8,0,0,1,.88-.89l1,0c5.68,0,11.36,0,17,0,1.85,0,1.85,0,1.9,1.82,0,.56,0,1.12,0,1.68V141.88a3.46,3.46,0,0,0,0,.72c.42,2-.64,2.82-2.3,3.56a57.58,57.58,0,0,1-13.25,4,88.78,88.78,0,0,1-17.14,1.38,48.48,48.48,0,0,1-18.66-3.62A36.17,36.17,0,0,1,1371,128.5a52.8,52.8,0,0,1-4-17.14,74.3,74.3,0,0,1,1.06-21c1.79-8.88,5.48-16.86,12-23.28A35.61,35.61,0,0,1,1402,57a54.32,54.32,0,0,1,17.34,1A12.84,12.84,0,0,0,1420.72,58.2Zm0,44.73q0-15.47,0-30.94c0-2,0-2-2-2.47a29.91,29.91,0,0,0-11.62-.38,19.71,19.71,0,0,0-13.87,8.9,35.23,35.23,0,0,0-4.61,12.24c-1.17,5.68-1,11.43-1,17.18a48.55,48.55,0,0,0,3,16.87c1.67,4.41,4.18,8.27,8.39,10.74,6.12,3.6,12.64,3.39,19.25,1.84,2.48-.59,2.46-.73,2.46-3.28Z"/><path class="cls-1" d="M557.68,106.38V65.12c0-2.85-.11-2.2,2.27-3.21a69.81,69.81,0,0,1,19-4.77,103.71,103.71,0,0,1,16.71-.88c7.37.29,14.64,1.19,21.27,4.8a24.18,24.18,0,0,1,12.91,18,31.68,31.68,0,0,1,.35,5.24v62.37c0,.64,0,1.28,0,1.91.09,1.1-.31,1.59-1.49,1.58q-9,0-18,0c-1.17,0-1.56-.48-1.48-1.58,0-.63,0-1.28,0-1.92V85.27a21.16,21.16,0,0,0-.87-6.37,11.69,11.69,0,0,0-8.74-8.37c-6.78-1.72-13.44-1-20,1.28a1.36,1.36,0,0,0-1.11,1.56c0,.64,0,1.28,0,1.92q0,35.86,0,71.73c0,3.62.35,3.11-3.24,3.13-5,0-10.08,0-15.11,0-2.51,0-2.44.21-2.44-2.52Z"/><path class="cls-1" d="M1207.6,114.57c0,9.44,0,18.88,0,28.32a3.1,3.1,0,0,1-2.19,3.39,68.84,68.84,0,0,1-20.85,5,107.08,107.08,0,0,1-16.51.27,48.21,48.21,0,0,1-16.73-3.69c-7.31-3.27-12.16-8.6-13.94-16.55a33.2,33.2,0,0,1-.06-14.71,25.79,25.79,0,0,1,11-16c5.56-3.82,11.83-5.91,18.28-7.53a145.93,145.93,0,0,1,19.56-3.26c1.2-.13,1.76-.46,1.69-1.71-.13-2.15,0-4.29-.28-6.45-.86-5.72-4.2-9.13-9.56-10.76-4.77-1.45-9.66-1.2-14.51-.66a50.24,50.24,0,0,0-15.32,4.51c-1.35.61-1.49.89-2.21-.91-1.18-3-2.38-5.93-3.56-8.9-.66-1.66-.67-1.72,1-2.48a67.44,67.44,0,0,1,17.84-5.32,73.65,73.65,0,0,1,14.07-.94,50.61,50.61,0,0,1,13.41,2.14c10,3.19,15.79,10.12,17.89,20.27a45.67,45.67,0,0,1,.9,9.27C1207.58,96.82,1207.6,105.7,1207.6,114.57Zm-19.68,4.06V103.28c0-3.37,0-3.44-3.23-3a65.09,65.09,0,0,0-16.65,4.24c-5.73,2.47-9.54,6.55-10.87,12.76a25.63,25.63,0,0,0-.45,9.24c.89,5.92,4,10.13,9.62,12a29.67,29.67,0,0,0,19.49-.26c2.1-.72,2.09-.79,2.09-3.14C1187.93,129.67,1187.92,124.15,1187.92,118.63Z"/><path class="cls-1" d="M847.45,132c1.46,2.79,2.19,5.76,3.42,8.52.43.94.72,1.95,1.08,2.92.69,1.88.7,1.89-1.19,2.82a54.24,54.24,0,0,1-17.19,4.87,82.35,82.35,0,0,1-16,.5c-17.45-1.18-30.64-11.49-35.64-28.23a62,62,0,0,1-2.5-17.46A79.23,79.23,0,0,1,781,87.36a42.7,42.7,0,0,1,10.46-20.42,32.45,32.45,0,0,1,15.47-9.16,44.74,44.74,0,0,1,24.79.33c9.48,2.86,15.88,9.24,19.75,18.22a53.73,53.73,0,0,1,4,18.61q.19,3.47.3,6.93c0,1.15-.31,1.71-1.54,1.88-5.29.71-10.57,1.5-15.85,2.27l-28.86,4.23c-2.76.4-5.52.78-8.28,1.17-1.73.24-1.83.25-1.63,1.87.81,6.45,2.62,12.57,7.29,17.34,4.16,4.25,9.46,6.05,15.36,6.26C831,137.19,839.45,135.93,847.45,132Zm-49.27-31.26a9.72,9.72,0,0,0,1.26,0q11-1.65,22-3.33c4.33-.66,8.67-1.29,13-2,1.59-.25,1.91-.65,1.61-2.25a24.72,24.72,0,0,1-.25-2.85,33.77,33.77,0,0,0-2.46-11.15A15.27,15.27,0,0,0,827,71.58c-7.71-4.35-18.5-2.78-23.77,5.74C798.76,84.48,798,92.41,798.18,100.72Z"/><path class="cls-1" d="M689.41,58h20c2,0,2,0,2.54,2q3.89,14.08,7.72,28.17,4.33,15.95,8.65,31.89a57.76,57.76,0,0,1,1.45,8.35c.9-.86.79-2,1-3,1.38-8.37,3.95-16.44,6.2-24.59,3.78-13.69,7.63-27.37,11.42-41.06.31-1.1.58-1.85,2-1.83,5.76.08,11.52,0,17.28.06a4.4,4.4,0,0,1,.79.16,34.42,34.42,0,0,1-1.68,5.71c-3.82,12-7.73,24-11.58,36q-7.65,23.83-15.26,47.67c-.15.46-.34.91-.44,1.37-.22,1-.84,1.2-1.76,1.2-5.76,0-11.52,0-17.28,0-1.3,0-1.57-.73-1.88-1.69-1.9-5.85-3.83-11.68-5.74-17.53q-3.69-11.27-7.37-22.54Q697.5,84.3,689.62,60.16A3.13,3.13,0,0,1,689.41,58Z"/><path class="cls-1" d="M977.17,75.15a23.77,23.77,0,0,0-10.69-4.85,19,19,0,0,0-8.55.28,11.63,11.63,0,0,0-5.39,19,24.77,24.77,0,0,0,8.87,6,64.34,64.34,0,0,1,12.68,6.7A26.1,26.1,0,0,1,979.37,140a31,31,0,0,1-19.78,11.12,54.51,54.51,0,0,1-23-1.45,35.88,35.88,0,0,1-8.73-3.87,1.48,1.48,0,0,1-.73-2.16c1.66-4,3.28-8,5-12.14,2,1.13,3.76,2.52,5.85,3.26,5.52,2,11.14,2.94,16.86,1.13a11.5,11.5,0,0,0,8.42-9.54c.8-5.06-.19-9.73-4.65-13a32.84,32.84,0,0,0-8.26-4.31,44.48,44.48,0,0,1-10-5.1c-6-4.15-10-9.57-11-17-2.09-16,8.24-26.92,20.27-29.62a42.87,42.87,0,0,1,31,4.44c1.75,1,1.74,1,1,2.75C980.22,68,978.75,71.4,977.17,75.15Z"/><path class="cls-1" d="M874.16,106.23c0-13.67,0-27.34,0-41a3,3,0,0,1,2.21-3.33,73.72,73.72,0,0,1,16.4-4.26c4.34-.63,8.71-.88,13.08-1.15,3.84-.23,7.66-.16,11.49-.22,1.47,0,1.59.16,1.24,1.5-1.1,4.16-2.24,8.31-3.34,12.48-.28,1.06-.7,1.64-2,1.24a29.37,29.37,0,0,0-10.84-1,19.77,19.77,0,0,0-5.79,1.39,1.71,1.71,0,0,0-1.31,2,13.44,13.44,0,0,1,0,1.68v71.72c0,3.31.24,2.9-3,2.91-5.12,0-10.24,0-15.35,0-2.93,0-2.78.25-2.78-2.67V106.23Z"/><path class="cls-1" d="M1024.72,104.14v43.65c0,2.35,0,2.36-2.36,2.37h-16.55c-2.18,0-2.2,0-2.21-2.27V61.07c0-.56,0-1.12,0-1.68-.08-1,.34-1.42,1.38-1.4,3,0,5.92,0,8.88,0s6.23,0,9.35,0c1.14,0,1.55.4,1.52,1.54,0,2.72,0,5.44,0,8.15Z"/><path class="cls-1" d="M673.84,104.16v42.71a15.68,15.68,0,0,0,0,1.68c.12,1.29-.5,1.63-1.7,1.63-5.83,0-11.67,0-17.51,0-1.69,0-1.7-.06-1.76-1.76,0-.4,0-.8,0-1.2q0-43.08,0-86.15c0-3.35-.42-3,3.12-3H671.6c2.21,0,2.23,0,2.23,2.24Q673.85,82.2,673.84,104.16Z"/><path class="cls-1" d="M1014.31,21.48a11.1,11.1,0,0,1,7.94,2.76,10.06,10.06,0,0,1-1.42,16.29,13,13,0,0,1-14.74-1.07c-6-5.06-3.89-14.59,3.76-17.32a8.9,8.9,0,0,1,1.84-.48C1012.55,21.54,1013.43,21.53,1014.31,21.48Z"/><path class="cls-1" d="M663.55,21.46c5-.39,9.86,3.69,10.92,7.11A10.42,10.42,0,0,1,666,42.11a12.4,12.4,0,0,1-10.9-3c-4.66-4.14-4.76-13,3.36-16.73a9.7,9.7,0,0,1,2.27-.73C661.63,21.54,662.6,21.54,663.55,21.46Z"/><line class="cls-2" x1="1574.27" x2="1574.27" y2="460.56"/><text class="cls-3" transform="translate(1610.77 207.1)">Educación</text><text class="cls-3" transform="translate(1610.77 383.09)">Continuada</text></g></g></svg>